<svg width="32" height="32" viewBox="0 0 32 32" fill="none" xmlns="http://www.w3.org/2000/svg">
  <rect width="32" height="32" rx="8" fill="#2563eb"/>
  <path d="M16 6C18.2091 6 20 7.79086 20 10V12H22C23.1046 12 24 12.8954 24 14V24C24 25.1046 23.1046 26 22 26H10C8.89543 26 8 25.1046 8 24V14C8 12.8954 8.89543 12 10 12H12V10C12 7.79086 13.7909 6 16 6ZM16 8C14.8954 8 14 8.89543 14 10V12H18V10C18 8.89543 17.1046 8 16 8ZM16 16C14.8954 16 14 16.8954 14 18C14 19.1046 14.8954 20 16 20C17.1046 20 18 19.1046 18 18C18 16.8954 17.1046 16 16 16Z" fill="white"/>
</svg>

